<svg
  xmlns="http://www.w3.org/2000/svg"
  width="48" height="48"
  viewBox="0 0 24 24"
  role="img"
  aria-label="Search GitHub"
>
  <!-- Ãcone do GitHub (branco) -->
  <path
    fill="white"
    d="M12 .5a11.5 11.5 0 0 0-3.64 22.4c.57.1.78-.25.78-.56v-2c-3.17.69-3.84-1.53-3.84-1.53-.52-1.3-1.28-1.64-1.28-1.64-1.05-.72.08-.7.08-.7 1.16.08 1.77 1.2 1.77 1.2 1.03 1.78 2.7 1.27 3.36.97.1-.75.4-1.27.72-1.56-2.54-.29-5.2-1.27-5.2-5.64 0-1.25.45-2.27 1.2-3.07-.12-.3-.52-1.5.11-3.12 0 0 .97-.31 3.18 1.18.92-.26 1.9-.39 2.88-.4.98.01 1.96.14 2.88.4 2.2-1.49 3.18-1.18 3.18-1.18.63 1.62.23 2.82.11 3.12.75.8 1.2 1.82 1.2 3.07 0 4.39-2.66 5.35-5.2 5.63.41.35.78 1.04.78 2.1v3.12c0 .31.21.67.79.55A11.5 11.5 0 0 0 12 .5Z"
  />

  <!-- Lupa (branca com borda preta) -->
  <g stroke="black" stroke-width="1" stroke-linecap="round" stroke-linejoin="round">
    <circle cx="18" cy="18" r="3.5" fill="white"/>
    <line x1="20.5" y1="20.5" x2="22" y2="22" stroke="black"/>
  </g>
</svg>
