<svg width="130" height="125" viewBox="0 0 130 125" fill="none" xmlns="http://www.w3.org/2000/svg">
<ellipse opacity="0.1" cx="64.7061" cy="120.763" rx="64.7061" ry="3.73495" fill="white"/>
<path fill-rule="evenodd" clip-rule="evenodd" d="M92.6931 20.3704C93.8079 18.9105 95.9419 18.5965 97.4594 19.669C98.9769 20.7414 99.3034 22.7943 98.1886 24.2542L94.036 29.6922C92.9212 31.1521 90.7873 31.4661 89.2697 30.3936C87.7522 29.3211 87.4258 27.2682 88.5406 25.8083L92.6931 20.3704ZM95.9271 21.6756C95.5615 21.4173 95.0475 21.493 94.779 21.8446L90.6265 27.2825C90.3579 27.6342 90.4366 28.1286 90.8021 28.387C91.1676 28.6453 91.6816 28.5696 91.9501 28.218L96.1027 22.7801C96.3712 22.4284 96.2926 21.934 95.9271 21.6756ZM31.2088 52.5908C31.2088 36.6444 44.6461 23.7173 61.2219 23.7173C77.7977 23.7173 91.235 36.6444 91.235 52.5908C91.235 68.5372 77.7977 81.4643 61.2219 81.4643C44.6461 81.4643 31.2088 68.5372 31.2088 52.5908ZM61.2219 21.2273C43.2166 21.2273 28.6205 35.2692 28.6205 52.5908C28.6205 69.9124 43.2166 83.9543 61.2219 83.9543C67.1409 83.9543 72.6915 82.4368 77.4762 79.7841L81.7078 83.855C81.5868 85.5851 82.2137 87.3545 83.5883 88.6769L96.6455 101.238C99.1724 103.669 103.269 103.669 105.796 101.238L108.612 98.5298C111.139 96.0988 111.139 92.1574 108.612 89.7264L95.5545 77.165C94.1796 75.8423 92.3399 75.2393 90.5411 75.356L86.9293 71.8812C91.2491 66.5609 93.8233 59.865 93.8233 52.5908C93.8233 35.2692 79.2271 21.2273 61.2219 21.2273ZM87.7358 76.1785L85.2507 73.7877C83.5956 75.5232 81.7401 77.0789 79.7193 78.4207L82.5623 81.1558C82.8385 80.6975 83.1805 80.2659 83.5883 79.8735L86.4037 77.165C86.8113 76.7729 87.2597 76.4441 87.7358 76.1785ZM76.1849 48.8213C76.8241 48.5138 77.0833 47.766 76.7636 47.151C76.444 46.536 75.6666 46.2868 75.0274 46.5943L64.8737 51.4783C64.4352 51.6892 64.1583 52.1203 64.1583 52.5919C64.1583 53.0634 64.4352 53.4945 64.8737 53.7054L75.0274 58.5895C75.6666 58.897 76.444 58.6477 76.7636 58.0327C77.0833 57.4177 76.8241 56.6699 76.1849 56.3624L68.3462 52.5919L76.1849 48.8213ZM45.6789 47.151C45.3592 47.766 45.6184 48.5138 46.2576 48.8213L54.0963 52.5919L46.2576 56.3624C45.6184 56.6699 45.3592 57.4177 45.6789 58.0327C45.9985 58.6477 46.7759 58.897 47.4151 58.5895L57.5688 53.7054C58.0073 53.4945 58.2842 53.0634 58.2842 52.5919C58.2842 52.1203 58.0073 51.6892 57.5688 51.4783L47.4151 46.5943C46.7759 46.2868 45.9985 46.536 45.6789 47.151ZM39.6698 52.5905C39.6698 41.1397 49.3189 31.8571 61.2215 31.8571C73.1242 31.8571 82.7733 41.1397 82.7733 52.5905C82.7733 64.0412 73.1242 73.3238 61.2215 73.3238C49.3189 73.3238 39.6698 64.0412 39.6698 52.5905ZM61.2215 29.3671C47.8894 29.3671 37.0816 39.7646 37.0816 52.5905C37.0816 65.4164 47.8894 75.8138 61.2215 75.8138C74.5537 75.8138 85.3615 65.4164 85.3615 52.5905C85.3615 39.7646 74.5537 29.3671 61.2215 29.3671ZM107.065 32.4287C106.493 30.7029 104.575 29.7503 102.781 30.301L96.0989 32.3523C94.305 32.903 93.3148 34.7484 93.8872 36.4742C94.4596 38.1999 96.3779 39.1525 98.1718 38.6018L104.854 36.5506C106.648 35.9999 107.638 34.1545 107.065 32.4287ZM103.568 32.6732C104 32.5405 104.462 32.77 104.6 33.1856C104.738 33.6013 104.499 34.0458 104.067 34.1785L97.385 36.2297C96.9529 36.3624 96.4908 36.1329 96.353 35.7172C96.2151 35.3015 96.4536 34.857 96.8857 34.7244L103.568 32.6732ZM19.7931 71.1193C17.9852 71.6261 16.9468 73.4468 17.4736 75.186C18.0004 76.9252 19.893 77.9242 21.7008 77.4174L28.4346 75.5297C30.2424 75.0229 31.2809 73.2022 30.7541 71.463C30.2273 69.7238 28.3347 68.7248 26.5269 69.2316L19.7931 71.1193ZM19.9585 74.4894C19.8316 74.0705 20.0817 73.6319 20.5172 73.5099L27.251 71.6221C27.6864 71.5 28.1423 71.7407 28.2692 72.1596C28.3961 72.5785 28.1459 73.0171 27.7105 73.1391L20.9767 75.0269C20.5412 75.1489 20.0854 74.9083 19.9585 74.4894ZM26.6389 88.2434C25.1501 87.1342 24.8778 85.074 26.0307 83.6418L30.3252 78.3068C31.4781 76.8745 33.6196 76.6126 35.1084 77.7217C36.5972 78.8308 36.8695 80.891 35.7165 82.3233L31.4221 87.6583C30.2692 89.0905 28.1277 89.3525 26.6389 88.2434ZM28.0771 85.1663C27.7994 85.5113 27.865 86.0075 28.2236 86.2747C28.5822 86.5418 29.0981 86.4787 29.3758 86.1337L33.6702 80.7988C33.9479 80.4538 33.8823 79.9575 33.5237 79.6904C33.1651 79.4232 32.6492 79.4863 32.3715 79.8313L28.0771 85.1663Z" fill="white"/>
</svg>
