<svg width="18" height="18" viewBox="0 0 18 18" fill="none" xmlns="http://www.w3.org/2000/svg">
<path d="M8.865 12.195C8.01 12.195 7.2 11.8575 6.5925 11.25C5.3325 9.99001 5.3325 7.96501 6.5925 6.72751C7.2 6.12001 8.01 5.78251 8.865 5.78251C9.72 5.78251 10.53 6.12001 11.1375 6.72751C11.3175 6.90751 11.3175 7.20001 11.1375 7.40251C10.9575 7.58251 10.665 7.58251 10.4625 7.40251C10.035 6.97501 9.4725 6.75001 8.865 6.75001C8.2575 6.75001 7.695 6.97501 7.2675 7.40251C6.39 8.28001 6.39 9.72001 7.2675 10.5975C7.695 11.025 8.2575 11.25 8.865 11.25C9.4725 11.25 10.035 11.025 10.4625 10.5975C10.6425 10.4175 10.935 10.4175 11.1375 10.5975C11.3175 10.7775 11.3175 11.07 11.1375 11.2725C10.5075 11.88 9.72 12.195 8.865 12.195ZM8.865 14.49C5.8275 14.49 3.375 12.015 3.375 9.00001C3.375 5.98501 5.8275 3.51001 8.865 3.51001C11.88 3.51001 14.355 5.96251 14.355 9.00001C14.355 12.0375 11.88 14.49 8.865 14.49ZM8.865 4.45501C6.3675 4.45501 4.32 6.48001 4.32 9.00001C4.32 11.52 6.345 13.545 8.865 13.545C11.3625 13.545 13.41 11.52 13.41 9.00001C13.41 6.48001 11.385 4.45501 8.865 4.45501Z" fill="white"/>
</svg>
