<svg width="18" height="18" viewBox="0 0 18 18" fill="none" xmlns="http://www.w3.org/2000/svg">
<path d="M6.47526 6.15602C6.47527 6.30701 6.44394 6.45635 6.38326 6.59461C6.32258 6.73287 6.23388 6.85703 6.12276 6.95925C6.01164 7.06147 5.88051 7.13952 5.73768 7.18846C5.59485 7.23741 5.44341 7.25618 5.29295 7.2436H5.27874C5.12994 7.25128 4.98114 7.22836 4.84155 7.17625C4.70196 7.12414 4.57454 7.04395 4.46717 6.94064C4.35981 6.83732 4.27477 6.71309 4.21733 6.57561C4.15988 6.43813 4.13125 6.29032 4.1332 6.14133C4.13514 5.99235 4.16763 5.84534 4.22865 5.70941C4.28967 5.57348 4.37792 5.45151 4.48795 5.35104C4.59798 5.25057 4.72745 5.17374 4.86836 5.12529C5.00926 5.07685 5.15861 5.05782 5.30716 5.06939C5.45656 5.05816 5.60667 5.07794 5.74806 5.12749C5.88944 5.17705 6.01906 5.25531 6.12875 5.35735C6.23845 5.4594 6.32586 5.58302 6.38549 5.72047C6.44512 5.85791 6.47569 6.0062 6.47526 6.15602ZM4.24611 8.10286H6.336V14.3905H4.24611V8.10286ZM13.8761 10.7839V14.3905H11.7862V11.0274C11.7862 10.1814 11.484 9.60444 10.7252 9.60444C10.4898 9.60657 10.2608 9.68108 10.0693 9.81786C9.87779 9.95464 9.73301 10.1471 9.65463 10.369C9.6011 10.5333 9.57767 10.706 9.58547 10.8787V14.3915H7.49369C7.49369 14.3915 7.52211 8.69118 7.49369 8.10192H9.58737V8.99244L9.57221 9.01423H9.58642V8.99055C9.77571 8.66194 10.0514 8.39149 10.3836 8.2086C10.7159 8.02571 11.0918 7.93737 11.4707 7.95318C12.8454 7.95318 13.8761 8.85223 13.8761 10.7839Z" fill="white"/>
</svg>
